<svg id="Layer_1" data-name="Layer 1" xmlns="http://www.w3.org/2000/svg" viewBox="0 0 864 233.1"><path d="M61.05,140.85H60L44.29,101.92c-3-7.51-5.2-8.1-8.28-8.1V92.67H52.77v1.18c-2.89,0-5.37,1-3.59,5.63l12.74,33.34,12.47-32.33c2.09-5.41-.28-6.78-2.93-6.78v-1H85.14v1.11c-3.52,0-5.79,2.17-7.12,5.45Z"/><path d="M90.5,140.3v-1c3,0,4.75-2.1,4.75-7V106.84c0-4.89-1.71-7-4.75-7v-1h14.11v1c-3,0-4.75,2.09-4.75,7v25.49c0,4.89,1.71,7,4.75,7v1Z"/><path d="M137.39,140.85c-12.92,0-21.09-9.46-21.09-21s8.31-21.51,21.92-21.51a30.14,30.14,0,0,1,12.65,2.9v8.17h-1c0-3.73-3.56-9-12.64-9-11.21,0-15.68,8.38-15.68,18.37s6.74,20.11,16.38,20.11c7,0,11.76-3.81,13.2-7.79l1,.35C150.8,136.45,146,140.85,137.39,140.85Z"/><path d="M171.66,140.3v-1c3,0,5.41-2.1,5.41-7V101.08h-6.15c-6.67,0-7.61,4.58-7.61,6.81h-1.05V99h34.23v8.94h-1.05c0-2.23-.94-6.81-7.61-6.81h-6.15v31.25c0,4.89,2.41,7,5.41,7v1Z"/><path d="M204.78,119.73c0-9.15,6.43-21.41,21.37-21.41,12.12,0,21.2,8.73,21.2,21.09,0,9.15-6.43,21.41-21.37,21.41C213.86,140.82,204.78,132.09,204.78,119.73ZM242,121c0-12.47-7.86-20.6-16.31-20.6-8.14,0-15.64,4.85-15.64,17.84,0,12.47,7.85,20.6,16.31,20.6C234.53,138.79,242,133.94,242,121Z"/><path d="M277.39,131.64c-2.93-4.93-5.87-10.55-10.48-10.55h-1.32l0,11.24c0,4.89,2.41,7,5.41,7v1H256.23v-1c3,0,4.75-2.1,4.75-7V106.84c0-4.89-1.71-7-4.75-7v-1h14.39c7.82.07,13,3.49,13,10.2,0,4.89-3.5,9.88-9.5,11.42,3.25,1.29,5.41,5.62,7.54,9.32,4.85,8.17,8,9.71,10.13,9.5l.21,1a21,21,0,0,1-4.65.55C282.35,140.85,280.11,136.18,277.39,131.64ZM279,110.2c0-5.94-3.91-9.33-10.48-9.33h-2.93v18.2h5A8.77,8.77,0,0,0,279,110.2Z"/><path d="M299,140.3v-1c3,0,4.75-2.1,4.75-7V106.84c0-4.89-1.71-7-4.75-7v-1h14.11v1c-3,0-4.75,2.09-4.75,7v25.49c0,4.89,1.71,7,4.75,7v1Z"/><path d="M346.64,140.3v-1c3.15,0,5.38-1,3.67-5.69L347.2,125l-13.3-.24-2.55,7.64c-1.82,5.38.59,6.92,3.7,6.92v1H321.36v-1c3.11,0,5.2-2.34,6.43-5.66l12.92-35.34h1l12.64,32.83c2.9,7.5,4.68,8.17,7.51,8.17v1Zm-.28-17.53-6.14-16.9-5.62,16.86Z"/><path d="M359.54,106c1.82-1.93,2.76-3.74,2.76-5.07,0-.84-.45-2-1.43-2a2.33,2.33,0,0,1-1.4-2.1,2.76,2.76,0,0,1,2.76-2.76c1.68,0,2.86,1.57,2.86,4,0,3-1.71,5.38-4.08,7.86l-.8.83Z"/><path d="M375.36,138.38V129.3h1.05c0,4.82,4.36,9.49,9.29,9.49,5.72,0,8.66-3.77,8.66-7.19s-1.65-6.35-8.52-10.82c-7.13-4.61-9.64-8.77-9.64-12.89,0-5.41,4.4-9.57,11.31-9.57a24.85,24.85,0,0,1,8.59,1.51v8h-1c0-4-2.65-7.51-8.24-7.51-4.12,0-7.05,2.41-7.05,5.93s2.44,6.12,8.94,10.38,9.5,8.48,9.5,12.57c0,6.84-5.17,11.59-13.06,11.59C381.92,140.82,377.35,139,375.36,138.38Z"/><path d="M418.54,138.2V127.38h1.18c0,6.53,5,11.45,12.12,11.45,5.87,0,9.64-3.39,9.64-7.75,0-4.16-3.56-8.42-10.58-12.71-9.15-5.9-11.42-10.24-11.42-14.81,0-6.63,5-11.31,13.48-11.31a23,23,0,0,1,9.15,2.09v9.08H441c0-4.36-3.17-9.08-8.69-9.08-5.94,0-9.36,3.25-9.36,7.34,0,3.84,3.39,6.91,11,11.9,8.14,5.35,11.32,10,11.32,15.19,0,11.32-11.73,12.08-14.84,12.08C426.67,140.85,420.77,139,418.54,138.2Z"/><path d="M457.21,140.3v-1c3,0,4.75-2.1,4.75-7V106.84c0-4.89-1.71-7-4.75-7v-1H483.4v8.35h-1c0-2-.59-6.15-7.61-6.15,0,0-8.17-.1-8.17,0v16.76l7.12,0c4.54,0,4.68-2.3,4.75-4.36h1l0,11.28h-1.05c-.07-2.2-.21-4.4-4.75-4.75-1.22-.11-7.12-.28-7.12-.28v12.64c0,4.78.21,6,8,5.94,5.59,0,8.35-2.94,8.35-6.71h1v8.7Z"/><path d="M515.2,140.85c-12.92,0-21.09-9.46-21.09-21S502.42,98.32,516,98.32a30.14,30.14,0,0,1,12.65,2.9v8.17h-1c0-3.73-3.56-9-12.64-9-11.21,0-15.68,8.38-15.68,18.37s6.74,20.11,16.37,20.11c7,0,11.77-3.81,13.2-7.79l1,.35C528.61,136.45,523.82,140.85,515.2,140.85Z"/><path d="M561.1,131.64c-2.93-4.93-5.87-10.55-10.48-10.55h-1.33l0,11.24c0,4.89,2.41,7,5.41,7v1H539.94v-1c3,0,4.75-2.1,4.75-7V106.84c0-4.89-1.71-7-4.75-7v-1h14.38c7.83.07,13,3.49,13,10.2,0,4.89-3.49,9.88-9.49,11.42,3.24,1.29,5.41,5.62,7.54,9.32,4.85,8.17,8,9.71,10.12,9.5l.21,1a20.79,20.79,0,0,1-4.64.55C566.06,140.85,563.82,136.18,561.1,131.64Zm1.6-21.44c0-5.94-3.91-9.33-10.47-9.33h-2.94v18.2h5A8.77,8.77,0,0,0,562.7,110.2Z"/><path d="M582.94,140.3v-1c3,0,4.75-2.1,4.75-7V106.84c0-4.89-1.71-7-4.75-7v-1h26.19v8.35h-1c0-2-.59-6.15-7.61-6.15,0,0-8.17-.1-8.17,0v16.76l7.12,0c4.54,0,4.68-2.3,4.75-4.36h1l0,11.28h-1.05c-.07-2.2-.21-4.4-4.75-4.75-1.22-.11-7.12-.28-7.12-.28v12.64c0,4.78.21,6,8,5.94,5.59,0,8.34-2.94,8.34-6.71h1v8.7Z"/><path d="M628.63,140.3v-1c3,0,5.42-2.1,5.42-7V101.08H627.9c-6.67,0-7.61,4.58-7.61,6.81h-1V99h34.22v8.94h-1.05c0-2.23-.94-6.81-7.61-6.81h-6.15v31.25c0,4.89,2.41,7,5.42,7v1Z"/><path d="M668.87,128.35c0-6.25,3.5-12.18,11.49-16.55-2.41-3.7-3.73-7.09-3.73-10,0-5.9,4.88-9.53,10-9.53,5.34,0,9,3.84,9,8,0,4.71-3,8-9.25,11.28L698.14,128a30.75,30.75,0,0,0,3.7-10.19c.73-4.65-.42-6.11-3.46-6.11v-1.09h13.69v1.12c-3.56,0-6,2.52-7.06,5.52a84,84,0,0,1-5.58,12.54c5.06,7.08,7,8.34,10.09,8.34a6,6,0,0,0,5.41-3.21l1.08.35a9.05,9.05,0,0,1-8.55,5.58c-4.26,0-7.89-2.44-11.42-6.91-4.36,4.68-8.9,6.91-13.72,6.91C675.16,140.85,668.87,135.79,668.87,128.35Zm15.79,9.5c3.84,0,7-2.23,10.09-5.65l0,0-13.13-18.61a15.35,15.35,0,0,0-7.85,12.88C673.73,131.88,679.28,137.85,684.66,137.85Zm.49-28.07c4.89-2.94,6.63-5.35,6.63-8.66,0-3.88-2.23-6.81-5.69-6.81a5.51,5.51,0,0,0-5.62,5.55c0,2,1.22,5.06,4.5,9.67Z"/><path d="M727,116.66c0-13.1,9.19-24.41,24.73-24.41,4.64,0,8.94,1,14.8,3.21v10.23h-1c0-6.67-5.2-11.1-14.8-11.1-12.47,0-18,9.46-18,20.84s6.08,23,18.82,23c7.65,0,12.71-3.25,14.77-8l1.05.53c-2.06,5.59-7.12,9.91-16.41,9.91C736.1,140.85,727,130.69,727,116.66Z"/><path d="M774.5,119.73c0-9.15,6.42-21.41,21.37-21.41,12.11,0,21.19,8.73,21.19,21.09,0,9.15-6.42,21.41-21.37,21.41C783.58,140.82,774.5,132.09,774.5,119.73ZM811.75,121c0-12.47-7.85-20.6-16.3-20.6-8.14,0-15.65,4.85-15.65,17.84,0,12.47,7.86,20.6,16.31,20.6C804.25,138.79,811.75,133.94,811.75,121Z"/><path d="M822.36,138.1a2.82,2.82,0,0,1,2.87-2.87A2.7,2.7,0,0,1,828,138a2.82,2.82,0,0,1-5.63.07Z"/></svg>